# xmcd
#
# Track frame offsets: 
#        150
#        15392
#        28085
#        40140
#        53470
#        66590
#        79635
#        92787
#        106015
#        120842
#        134970
#        149982
#        162382
#        174882
#
# Disc length: 2500 seconds
#
# Revision: 3
# Processed by: cddbd v1.5.2PL0 Copyright (c) Steve Scherf et al.
# Submitted via: ExactAudioCopy v0.99pb3
#
DISCID=b909c20e
DTITLE=Luizinho e Limeira - Luar do Sertao
DYEAR=1997
DGENRE=Country
TTITLE0=O Menino da Porteira
TTITLE1=Pe na Tabua
TTITLE2=Tronco Caido
TTITLE3=Nao Sou Gaucho
TTITLE4=Sao Cristovao
TTITLE5=Roseira Branca
TTITLE6=Lenco Preto
TTITLE7=Solteiro eh Mioh
TTITLE8=O Manto Sagrado
TTITLE9=Pretinho Aleijado
TTITLE10=Nao Chores Mais
TTITLE11=As Duas Cruis de Ferro
TTITLE12=Fandango
TTITLE13=Querencia Amada
EXTD=
EXTT0=
EXTT1=
EXTT2=
EXTT3=
EXTT4=
EXTT5=
EXTT6=
EXTT7=
EXTT8=
EXTT9=
EXTT10=
EXTT11=
EXTT12=
EXTT13=
PLAYORDER=
